<svg xmlns="http://www.w3.org/2000/svg" version="1.1" xmlns:xlink="http://www.w3.org/1999/xlink" xmlns:svgjs="http://svgjs.dev/svgjs" width="2000" height="333" viewBox="0 0 2000 333"><g transform="matrix(1,0,0,1,-1.2121212121213603,0.6406306820119596)"><svg viewBox="0 0 396 66" data-background-color="#ffffff" preserveAspectRatio="xMidYMid meet" height="333" width="2000" xmlns="http://www.w3.org/2000/svg" xmlns:xlink="http://www.w3.org/1999/xlink"><g id="tight-bounds" transform="matrix(1,0,0,1,0.24000000000003752,-0.12697184688525454)"><svg viewBox="0 0 395.5199999999999 66.25394369377051" height="66.25394369377051" width="395.5199999999999"><g><svg viewBox="0 0 492.9957710272042 82.58220584269664" height="66.25394369377051" width="395.5199999999999"><g transform="matrix(1,0,0,1,97.47577102720425,9.747097633840053)"><svg viewBox="0 0 395.52 63.08801057501653" height="63.08801057501653" width="395.52"><g id="textblocktransform"><svg viewBox="0 0 395.52 63.08801057501653" height="63.08801057501653" width="395.52" id="textblock"><g><svg viewBox="0 0 395.52 63.08801057501653" height="63.08801057501653" width="395.52"><g transform="matrix(1,0,0,1,0,0)"><svg width="395.52" viewBox="3.4 -35.6 226.93 36.2" height="63.08801057501653" data-palette-color="#111111"><path d="M9.8 0L3.4 0 3.4-35 9.8-35 9.8-20.45 25.5-20.45 25.5-35 31.9-35 31.9 0 25.5 0 25.5-15.25 9.8-15.25 9.8 0ZM47.1 0.6L47.1 0.6Q43.9 0.6 41.85-0.43 39.8-1.45 38.8-3.15 37.8-4.85 37.8-6.9L37.8-6.9Q37.8-10.35 40.5-12.5 43.2-14.65 48.6-14.65L48.6-14.65 54.9-14.65 54.9-15.25Q54.9-17.8 53.45-19 52-20.2 49.85-20.2L49.85-20.2Q47.9-20.2 46.45-19.28 45-18.35 44.65-16.55L44.65-16.55 38.4-16.55Q38.65-19.25 40.22-21.25 41.8-23.25 44.3-24.33 46.8-25.4 49.9-25.4L49.9-25.4Q55.2-25.4 58.25-22.75 61.3-20.1 61.3-15.25L61.3-15.25 61.3 0 55.85 0 55.25-4Q54.15-2 52.17-0.7 50.2 0.6 47.1 0.6ZM48.55-4.4L48.55-4.4Q51.3-4.4 52.82-6.2 54.35-8 54.75-10.65L54.75-10.65 49.3-10.65Q46.75-10.65 45.65-9.73 44.55-8.8 44.55-7.45L44.55-7.45Q44.55-6 45.65-5.2 46.75-4.4 48.55-4.4ZM82.45 0L78.1 0Q74.2 0 71.85-1.9 69.5-3.8 69.5-8.65L69.5-8.65 69.5-19.45 65.25-19.45 65.25-24.8 69.5-24.8 70.25-31.45 75.9-31.45 75.9-24.8 82.6-24.8 82.6-19.45 75.9-19.45 75.9-8.6Q75.9-6.8 76.67-6.13 77.45-5.45 79.35-5.45L79.35-5.45 82.45-5.45 82.45 0ZM99.49 0.6L99.49 0.6Q95.74 0.6 92.84-1 89.94-2.6 88.29-5.5 86.64-8.4 86.64-12.2L86.64-12.2Q86.64-16.05 88.27-19.05 89.89-22.05 92.77-23.73 95.64-25.4 99.54-25.4L99.54-25.4Q103.19-25.4 105.99-23.8 108.79-22.2 110.37-19.43 111.94-16.65 111.94-13.25L111.94-13.25Q111.94-12.7 111.92-12.1 111.89-11.5 111.84-10.85L111.84-10.85 92.99-10.85Q93.19-7.95 95.02-6.3 96.84-4.65 99.44-4.65L99.44-4.65Q101.39-4.65 102.72-5.53 104.04-6.4 104.69-7.8L104.69-7.8 111.19-7.8Q110.49-5.45 108.87-3.53 107.24-1.6 104.87-0.5 102.49 0.6 99.49 0.6ZM99.54-20.2L99.54-20.2Q97.19-20.2 95.39-18.88 93.59-17.55 93.09-14.85L93.09-14.85 105.44-14.85Q105.29-17.3 103.64-18.75 101.99-20.2 99.54-20.2ZM129.44 0.6L129.44 0.6Q125.59 0.6 122.64-0.73 119.69-2.05 117.99-4.53 116.29-7 116.24-10.55L116.24-10.55 122.99-10.55Q123.09-8.1 124.77-6.43 126.44-4.75 129.39-4.75L129.39-4.75Q131.94-4.75 133.44-5.98 134.94-7.2 134.94-9.25L134.94-9.25Q134.94-11.4 133.62-12.6 132.29-13.8 130.09-14.55 127.89-15.3 125.39-16.15L125.39-16.15Q121.34-17.55 119.22-19.75 117.09-21.95 117.09-25.6L117.09-25.6Q117.04-28.7 118.57-30.93 120.09-33.15 122.74-34.38 125.39-35.6 128.84-35.6L128.84-35.6Q132.34-35.6 135.02-34.35 137.69-33.1 139.22-30.85 140.74-28.6 140.84-25.5L140.84-25.5 133.99-25.5Q133.94-27.35 132.57-28.78 131.19-30.2 128.74-30.2L128.74-30.2Q126.64-30.25 125.22-29.18 123.79-28.1 123.79-26.05L123.79-26.05Q123.79-24.3 124.89-23.28 125.99-22.25 127.89-21.55 129.79-20.85 132.24-20.05L132.24-20.05Q134.84-19.15 136.99-17.95 139.14-16.75 140.44-14.78 141.74-12.8 141.74-9.7L141.74-9.7Q141.74-6.95 140.34-4.6 138.94-2.25 136.19-0.83 133.44 0.6 129.44 0.6ZM159.34 0.6L159.34 0.6Q155.54 0.6 152.64-1.05 149.74-2.7 148.06-5.65 146.39-8.6 146.39-12.4L146.39-12.4Q146.39-16.2 148.06-19.15 149.74-22.1 152.64-23.75 155.54-25.4 159.34-25.4L159.34-25.4Q164.09-25.4 167.34-22.93 170.59-20.45 171.49-16.1L171.49-16.1 164.74-16.1Q164.24-17.9 162.76-18.93 161.29-19.95 159.29-19.95L159.29-19.95Q156.64-19.95 154.79-17.95 152.94-15.95 152.94-12.4L152.94-12.4Q152.94-8.85 154.79-6.85 156.64-4.85 159.29-4.85L159.29-4.85Q161.29-4.85 162.76-5.85 164.24-6.85 164.74-8.7L164.74-8.7 171.49-8.7Q170.59-4.5 167.34-1.95 164.09 0.6 159.34 0.6ZM185.74 0.6L185.74 0.6Q182.54 0.6 180.49-0.43 178.44-1.45 177.44-3.15 176.44-4.85 176.44-6.9L176.44-6.9Q176.44-10.35 179.14-12.5 181.84-14.65 187.24-14.65L187.24-14.65 193.54-14.65 193.54-15.25Q193.54-17.8 192.09-19 190.64-20.2 188.49-20.2L188.49-20.2Q186.54-20.2 185.09-19.28 183.64-18.35 183.29-16.55L183.29-16.55 177.04-16.55Q177.29-19.25 178.86-21.25 180.44-23.25 182.94-24.33 185.44-25.4 188.54-25.4L188.54-25.4Q193.84-25.4 196.89-22.75 199.94-20.1 199.94-15.25L199.94-15.25 199.94 0 194.49 0 193.89-4Q192.79-2 190.81-0.7 188.84 0.6 185.74 0.6ZM187.19-4.4L187.19-4.4Q189.94-4.4 191.46-6.2 192.99-8 193.39-10.65L193.39-10.65 187.94-10.65Q185.39-10.65 184.29-9.73 183.19-8.8 183.19-7.45L183.19-7.45Q183.19-6 184.29-5.2 185.39-4.4 187.19-4.4ZM212.43 0L206.03 0 206.03-24.8 211.68-24.8 212.18-20.6Q213.33-22.8 215.51-24.1 217.68-25.4 220.63-25.4L220.63-25.4Q225.23-25.4 227.78-22.5 230.33-19.6 230.33-14L230.33-14 230.33 0 223.93 0 223.93-13.4Q223.93-16.6 222.63-18.3 221.33-20 218.58-20L218.58-20Q215.88-20 214.16-18.1 212.43-16.2 212.43-12.8L212.43-12.8 212.43 0Z" opacity="1" transform="matrix(1,0,0,1,0,0)" fill="#111111" class="wordmark-text-0" data-fill-palette-color="primary" id="text-0"></path></svg></g></svg></g></svg></g></svg></g><g><svg viewBox="0 0 82.58220584269664 82.58220584269664" height="82.58220584269664" width="82.58220584269664"><g><svg xmlns="http://www.w3.org/2000/svg" xmlns:xlink="http://www.w3.org/1999/xlink" version="1.1" x="0" y="0" viewBox="5.3999999999999995 5.1 89.4 89.4" style="enable-background:new 0 0 100 100;" xml:space="preserve" height="82.58220584269664" width="82.58220584269664" class="icon-icon-0" data-fill-palette-color="accent" id="icon-0"><g fill="#ff4136" data-fill-palette-color="accent"><path d="M14.9 59.1H5.5v29.6c0 3.2 2.6 5.8 5.8 5.8h29.6V85h-26V59.1z" fill="#ff4136" data-fill-palette-color="accent"></path><path d="M59.4 85v9.4H89c3.2 0 5.8-2.6 5.8-5.8V59.1h-9.4v26H59.4z" fill="#ff4136" data-fill-palette-color="accent"></path><path d="M85.4 40.5h9.4V10.9c0-3.2-2.6-5.8-5.8-5.8H59.4v9.4h26V40.5z" fill="#ff4136" data-fill-palette-color="accent"></path><path d="M40.8 14.5V5.1H11.2c-3.2 0-5.8 2.6-5.8 5.8v29.6h9.4v-26H40.8z" fill="#ff4136" data-fill-palette-color="accent"></path></g><path d="M34.8 26.4c-5.6 0-10.1 4.5-10.1 10.1s4.5 10.1 10.1 10.1S45 42.1 45 36.5 40.4 26.4 34.8 26.4z" fill="#ff4136" data-fill-palette-color="accent"></path><path d="M65.2 26.4c-5.6 0-10.1 4.5-10.1 10.1s4.5 10.1 10.1 10.1 10.1-4.5 10.1-10.1S70.8 26.4 65.2 26.4zM65.2 41c-2.5 0-4.5-2-4.5-4.5s2-4.5 4.5-4.5 4.5 2 4.5 4.5C69.7 39 67.7 41 65.2 41z" fill="#ff4136" data-fill-palette-color="accent"></path><path d="M34.8 56.5c-5.6 0-10.1 4.5-10.1 10.1 0 5.6 4.5 10.1 10.1 10.1S45 72.2 45 66.6C45 61 40.4 56.5 34.8 56.5zM34.8 71.1c-2.5 0-4.5-2-4.5-4.5s2-4.5 4.5-4.5 4.5 2 4.5 4.5C39.3 69.1 37.3 71.1 34.8 71.1z" fill="#ff4136" data-fill-palette-color="accent"></path><path d="M65.2 56.5C59.6 56.5 55 61 55 66.6c0 5.6 4.5 10.1 10.1 10.1s10.1-4.5 10.1-10.1C75.3 61 70.8 56.5 65.2 56.5z" fill="#ff4136" data-fill-palette-color="accent"></path></svg></g></svg></g></svg></g><defs></defs></svg><rect width="395.5199999999999" height="66.25394369377051" fill="none" stroke="none" visibility="hidden"></rect></g></svg></g></svg>